<svg width="10031" height="4191" viewBox="0 0 10031 4191" fill="none" xmlns="http://www.w3.org/2000/svg">
<g id="AboutTitleFrame">
<g id="Group 8">
<path id="Polygon 36" d="M2784 3721L1821 2925.25L1821 1333.75L2302.5 935.875L2784 538" stroke="url(#paint0_linear_468_26)" stroke-width="113"/>
<path id="Polygon 37" d="M7247 538L8210 1333.75V2925.25L7728.5 3323.12L7247 3721" stroke="url(#paint1_linear_468_26)" stroke-width="113"/>
<circle id="Ellipse 41" cx="7086.5" cy="429.5" r="222.5" stroke="#0CC5CB" stroke-width="70"/>
<circle id="Ellipse 44" cx="3026.5" cy="343.5" r="308.5" stroke="#24549B" stroke-width="70"/>
<circle id="Ellipse 43" cx="2940.5" cy="3833.5" r="224.5" stroke="#24549B" stroke-width="66"/>
<circle id="Ellipse 42" cx="7054" cy="3881" r="277.5" stroke="#0CC5CB" stroke-width="65"/>
<path id="Polygon 38" d="M144.158 1740.17L818.5 1350.84L1492.84 1740.17V2518.83L818.5 2908.16L144.158 2518.83V1740.17Z" stroke="#0CC5CB" stroke-width="69"/>
<path id="Polygon 40" d="M261.139 1807.92L819 1485.84L1376.86 1807.92V2452.08L819 2774.16L261.139 2452.08V1807.92Z" stroke="#24549B" stroke-width="69"/>
<path id="Polygon 41" d="M8654.14 1807.92L9212 1485.84L9769.86 1807.92V2452.08L9212 2774.16L8654.14 2452.08V1807.92Z" stroke="#0CC5CB" stroke-width="69"/>
<path id="Polygon 39" d="M8538.16 1740.17L9212.5 1350.84L9886.84 1740.17V2518.83L9212.5 2908.16L8538.16 2518.83V1740.17Z" stroke="#24549B" stroke-width="69"/>
</g>
</g>
<defs>
<linearGradient id="paint0_linear_468_26" x1="2784" y1="3618.5" x2="2807.5" y2="646.5" gradientUnits="userSpaceOnUse">
<stop offset="0.0121508" stop-color="#24549B"/>
<stop offset="0.200414" stop-color="#0CC5CB"/>
<stop offset="0.787647" stop-color="#0CC5CB"/>
<stop offset="1" stop-color="#24549B"/>
</linearGradient>
<linearGradient id="paint1_linear_468_26" x1="7544.5" y1="642" x2="7541.5" y2="3635" gradientUnits="userSpaceOnUse">
<stop stop-color="#0CC5CB"/>
<stop offset="0.268165" stop-color="#24549B"/>
<stop offset="0.718805" stop-color="#24549B"/>
<stop offset="1" stop-color="#0CC5CB"/>
</linearGradient>
</defs>
</svg>
