<svg width="4006" height="1359" viewBox="0 0 4006 1359" fill="none" xmlns="http://www.w3.org/2000/svg">
<path d="M197.26 518.337L176.524 544.663C121.068 615.068 88.402 700.711 82.8841 790.164C67.9975 1031.5 250.382 1239.74 491.571 1256.79L1937.09 1359L2183.45 1348.32C2753.8 1323.61 3319.7 1236.34 3871 1088.09V340.29L2451.79 90.5675C2111.84 30.7484 1763.54 36.9201 1425.91 108.745L559.184 293.13C415.934 323.605 287.881 403.285 197.26 518.337Z" fill="white" fill-opacity="0.75"/>
<mask id="mask0_512_3" style="mask-type:alpha" maskUnits="userSpaceOnUse" x="82" y="49" width="3789" height="1310">
<path d="M197.26 518.337L176.524 544.663C121.068 615.068 88.402 700.711 82.8841 790.164C67.9975 1031.5 250.382 1239.74 491.571 1256.79L1937.09 1359L2183.45 1348.32C2753.8 1323.61 3319.7 1236.34 3871 1088.09V340.29L2451.79 90.5675C2111.84 30.7484 1763.54 36.9201 1425.91 108.745L559.184 293.13C415.934 323.605 287.881 403.285 197.26 518.337Z" fill="white"/>
</mask>
<g mask="url(#mask0_512_3)">
<line x1="364.019" y1="1093.9" x2="144.019" y2="1049.9" stroke="#112849" stroke-width="10"/>
<line x1="308.019" y1="968.903" x2="88.0194" y2="924.903" stroke="#112849" stroke-width="10"/>
<line x1="466.979" y1="860.895" x2="236.979" y2="812.895" stroke="#112849" stroke-width="10"/>
<line x1="347.007" y1="674.9" x2="115.007" y2="627.9" stroke="#112849" stroke-width="10"/>
<line x1="433.027" y1="555.904" x2="196.027" y2="508.904" stroke="#112849" stroke-width="10"/>
</g>
<path d="M231.419 783.401L248.513 802.992L240.093 827.591L214.58 832.599L197.486 813.008L205.906 788.409L231.419 783.401Z" fill="#112849"/>
<path d="M370.015 654.488L389.601 671.587L384.586 697.099L359.984 705.511L340.398 688.412L345.413 662.9L370.015 654.488Z" fill="#112849"/>
<path d="M329.441 946.242L349.295 963.03L344.684 988.617L320.219 997.418L300.365 980.63L304.976 955.043L329.441 946.242Z" fill="#112849"/>
<path d="M197.608 238L208.347 254.388C240.23 303.042 277.726 347.836 320.001 387.792V387.792C583.914 637.226 513.979 1074.43 185.177 1228.56V1228.56C127.005 1255.83 72.4071 1290.15 22.6122 1330.74L11.9997 1339.4" stroke="#112849" stroke-width="23" stroke-linecap="round"/>
</svg>
