<svg width="1311" height="1109" viewBox="0 0 1311 1109" fill="none" xmlns="http://www.w3.org/2000/svg">
<g id="DNAParticle" opacity="0.5">
<g id="Group 1">
<g id="Layer_2_2_">
<path id="Vector" d="M16 1093.1C37.1 1057.1 64.9 1002.5 84.2 931.8C97.8 882.2 96.1 865.2 104.4 826.7C115.4 775.2 145 636.6 251.3 573.3C345.9 516.9 462.5 543.3 493.2 550.3C498.9 551.6 531.1 561.2 595.4 580.5C702.2 612.5 714 617.3 740.8 619.4C764.2 621.2 822.5 625 883.4 594.9C959.1 557.5 994.3 489.7 1014.4 450.9C1025.6 429.4 1032.8 407.7 1047.5 364.5C1069.5 300.1 1080.3 253.3 1085.7 232.5C1098.7 182 1124.5 108.9 1181.5 16" stroke="#3EC8DB" stroke-width="30" stroke-miterlimit="10" stroke-linecap="round"/>
<path id="Vector_2" d="M16 783.5C87 790.6 141.7 806.5 179.3 820.2C244.1 843.8 267.2 864.2 324 869.9C351.5 872.7 402.4 877.8 451.4 850.5C500.4 823.2 519.4 770.1 546.4 701.5C554.7 680.5 559.8 662.9 570.2 627.6C599.1 529.3 600.1 500.6 612.2 463.2C618.5 443.9 659.2 318.8 751.9 284.8C817.1 260.9 895.5 290.5 1052.7 348.8C1088.3 362 1119.2 375 1162 370.9C1220.9 365.3 1266.3 330.8 1295.9 301.8" stroke="#3EC8DB" stroke-width="30" stroke-miterlimit="10" stroke-linecap="round"/>
</g>
<path id="Vector_3" d="M468.9 545.2L546.4 701.5" stroke="#3EC8DB" stroke-width="30" stroke-miterlimit="10"/>
<path id="Vector_4" d="M345.9 541.1L491.9 814.8" stroke="#3EC8DB" stroke-width="30" stroke-miterlimit="10"/>
<path id="Vector_5" d="M239.8 574.4L415.5 865.2" stroke="#3EC8DB" stroke-width="30" stroke-miterlimit="10"/>
<path id="Vector_6" d="M150.5 686.9L297.6 865.7" stroke="#3EC8DB" stroke-width="30" stroke-miterlimit="10"/>
<path id="Vector_7" d="M41.5 786.5L75.7 960.5" stroke="#3EC8DB" stroke-width="30" stroke-miterlimit="10"/>
<path id="Vector_8" d="M633.9 409.1L740.8 619.4" stroke="#3EC8DB" stroke-width="30" stroke-miterlimit="10"/>
<path id="Vector_9" d="M697.7 318.8L851.5 607.8" stroke="#3EC8DB" stroke-width="30" stroke-miterlimit="10"/>
<path id="Vector_10" d="M774.6 278.8L952.5 543.4" stroke="#3EC8DB" stroke-width="30" stroke-miterlimit="10"/>
<path id="Vector_11" d="M894 293.2L1015.2 427" stroke="#3EC8DB" stroke-width="30" stroke-miterlimit="10"/>
<path id="Vector_12" d="M1139 371L1102 180" stroke="#3EC8DB" stroke-width="30" stroke-miterlimit="10"/>
</g>
</g>
</svg>
