<svg width="1837" height="1659" viewBox="0 0 1837 1659" fill="none" xmlns="http://www.w3.org/2000/svg">
<g id="HexagonInputDecorationForTA">
<g id="RemainderBottom">
<line id="Line 90" x1="1585.9" y1="1579.19" x2="1664.19" y2="1535.1" stroke="#0CC5CB" stroke-width="10" stroke-linecap="round"/>
<line id="Line 91" x1="1743" y1="1584" x2="1743" y2="1654" stroke="#0CC5CB" stroke-width="10" stroke-linecap="round"/>
</g>
<g id="HexBottom">
<path id="Polygon 50" d="M1663.79 1445.64L1741.5 1400.77L1819.21 1445.64V1535.36L1741.5 1580.23L1663.79 1535.36V1445.64Z" stroke="url(#paint0_linear_715_7)" stroke-width="10"/>
<line id="Line 93" x1="1801.5" y1="1460.5" x2="1801.5" y2="1519.5" stroke="url(#paint1_linear_715_7)" stroke-width="5" stroke-linecap="round"/>
<line id="Line 94" x1="1683.5" y1="1460.5" x2="1683.5" y2="1519.5" stroke="url(#paint2_linear_715_7)" stroke-width="5" stroke-linecap="round"/>
</g>
<g id="HexMiddleBottom">
<path id="Polygon 49" d="M1582.79 1311.64L1660.5 1266.77L1738.21 1311.64V1401.36L1660.5 1446.23L1582.79 1401.36V1311.64Z" stroke="#112849" stroke-width="10"/>
<line id="Line 98" x1="1604.42" y1="1392.08" x2="1655.51" y2="1421.58" stroke="#112849" stroke-width="5" stroke-linecap="round"/>
<line id="Line 99" x1="1720.5" y1="1323.5" x2="1720.5" y2="1382.5" stroke="#112849" stroke-width="5" stroke-linecap="round"/>
</g>
<g id="HexTop">
<path id="Polygon 53" d="M95.7946 123.637L173.5 78.7735L251.205 123.637V213.363L173.5 258.227L95.7946 213.363V123.637Z" stroke="url(#paint3_linear_715_7)" stroke-width="10"/>
<line id="Line 95" x1="168.511" y1="102.415" x2="117.415" y2="131.915" stroke="url(#paint4_linear_715_7)" stroke-width="5" stroke-linecap="round"/>
<line id="Line 96" x1="167.011" y1="233.915" x2="115.915" y2="204.415" stroke="url(#paint5_linear_715_7)" stroke-width="5" stroke-linecap="round"/>
<line id="Line 97" x1="234.5" y1="198.5" x2="234.5" y2="139.5" stroke="url(#paint6_linear_715_7)" stroke-width="5" stroke-linecap="round"/>
</g>
<g id="HexMiddleTopRight">
<path id="Polygon 52" d="M173.795 257.637L251.5 212.774L329.205 257.637V347.363L251.5 392.227L173.795 347.363V257.637Z" stroke="#112849" stroke-width="10"/>
<line id="Line 101" x1="312.5" y1="331.5" x2="312.5" y2="272.5" stroke="#112849" stroke-width="5" stroke-linecap="round"/>
<line id="Line 102" x1="190.5" y1="331.5" x2="190.5" y2="272.5" stroke="#112849" stroke-width="5" stroke-linecap="round"/>
<line id="Line 100" x1="312.5" y1="331.5" x2="312.5" y2="272.5" stroke="#112849" stroke-width="5" stroke-linecap="round"/>
</g>
<g id="HexMiddleTopLeft">
<path id="Polygon 51" d="M17.7946 257.637L95.5 212.774L173.205 257.637V347.363L95.5 392.227L17.7946 347.363V257.637Z" stroke="#112849" stroke-width="10"/>
<line id="Line 103" x1="35.9151" y1="266.585" x2="87.0106" y2="237.085" stroke="#112849" stroke-width="5" stroke-linecap="round"/>
</g>
<g id="RemainderTop">
<line id="Line 89" x1="253.903" y1="121.19" x2="332.19" y2="77.0971" stroke="#24549B" stroke-width="10" stroke-linecap="round"/>
<line id="Line 92" x1="174" y1="5" x2="174" y2="75" stroke="#24549B" stroke-width="10" stroke-linecap="round"/>
</g>
</g>
<defs>
<linearGradient id="paint0_linear_715_7" x1="1686.5" y1="1448" x2="1692" y2="1540.5" gradientUnits="userSpaceOnUse">
<stop stop-color="#112849"/>
<stop offset="0.917687" stop-color="#0CC5CB"/>
</linearGradient>
<linearGradient id="paint1_linear_715_7" x1="1799" y1="1458" x2="1799" y2="1522" gradientUnits="userSpaceOnUse">
<stop stop-color="#112849"/>
<stop offset="1" stop-color="#0CC5CB"/>
</linearGradient>
<linearGradient id="paint2_linear_715_7" x1="1681" y1="1450.5" x2="1681" y2="1522" gradientUnits="userSpaceOnUse">
<stop stop-color="#112849"/>
<stop offset="1" stop-color="#0CC5CB"/>
</linearGradient>
<linearGradient id="paint3_linear_715_7" x1="196.5" y1="97" x2="173.5" y2="264" gradientUnits="userSpaceOnUse">
<stop stop-color="#24549B"/>
<stop offset="0.0001" stop-color="#24549B"/>
<stop offset="0.723486" stop-color="#112849"/>
</linearGradient>
<linearGradient id="paint4_linear_715_7" x1="142" y1="126.5" x2="142" y2="169" gradientUnits="userSpaceOnUse">
<stop stop-color="#24549B"/>
<stop offset="0.0001" stop-color="#24549B"/>
<stop offset="1" stop-color="#112849"/>
</linearGradient>
<linearGradient id="paint5_linear_715_7" x1="143" y1="154.5" x2="143" y2="221" gradientUnits="userSpaceOnUse">
<stop stop-color="#24549B"/>
<stop offset="0.0001" stop-color="#24549B"/>
<stop offset="1" stop-color="#112849"/>
</linearGradient>
<linearGradient id="paint6_linear_715_7" x1="237" y1="127.5" x2="237" y2="214" gradientUnits="userSpaceOnUse">
<stop stop-color="#24549B"/>
<stop offset="0.0001" stop-color="#24549B"/>
<stop offset="1" stop-color="#112849"/>
</linearGradient>
</defs>
</svg>
