<svg width="931" height="735" viewBox="0 0 931 735" fill="none" xmlns="http://www.w3.org/2000/svg">
<g id="Blo9Dark">
<g id="Group 6" opacity="0.5">
<line id="Line 60" x1="249.94" y1="275.658" x2="30.7742" y2="485.93" stroke="#24549B" stroke-width="21"/>
<circle id="Ellipse 32" cx="242.671" cy="268.081" r="78.1374" fill="#24549B"/>
<line id="Line 61" x1="280.704" y1="258.047" x2="433.167" y2="305.057" stroke="#24549B" stroke-width="21"/>
<circle id="Ellipse 33" cx="517.104" cy="329.067" r="118.159" fill="#24549B"/>
<line id="Line 62" x1="539.751" y1="285.395" x2="713.178" y2="47.8067" stroke="#24549B" stroke-width="21"/>
<circle id="Ellipse 34" cx="721.342" cy="53.6798" r="53.6798" fill="#24549B"/>
<line id="Line 63" x1="577.114" y1="330.641" x2="758.164" y2="335.723" stroke="#24549B" stroke-width="21"/>
<circle id="Ellipse 35" cx="789.632" cy="338.559" r="67.9732" fill="#24549B"/>
<circle id="Ellipse 36" cx="48.5977" cy="478.036" r="48.5977" fill="#24549B"/>
<line id="Line 64" x1="527.564" y1="347.142" x2="504.059" y2="613.318" stroke="#24549B" stroke-width="21"/>
<circle id="Ellipse 37" cx="493.282" cy="655.274" r="79.7256" fill="#24549B"/>
<line id="Line 65" x1="782.846" y1="330.547" x2="890.841" y2="239.069" stroke="#24549B" stroke-width="21"/>
<circle id="Ellipse 38" cx="890.628" cy="236.081" r="28.5869" fill="#24549B"/>
<line id="Line 66" x1="789.633" y1="342.035" x2="897.628" y2="342.035" stroke="#24549B" stroke-width="21"/>
<circle id="Ellipse 39" cx="908.744" cy="341.406" r="21.2813" fill="#24549B"/>
<line id="Line 67" x1="783.467" y1="383.833" x2="751.703" y2="461.336" stroke="#24549B" stroke-width="21"/>
<circle id="Ellipse 40" cx="736.918" cy="487.94" r="45.1037" fill="#24549B"/>
</g>
</g>
</svg>
