<svg width="3541" height="1014" viewBox="0 0 3541 1014" fill="none" xmlns="http://www.w3.org/2000/svg">
<g id="Cloud">
<path id="Vector 3" d="M2835.35 897.893L3082.04 841.408C3218.08 810.26 3339.54 729.331 3421.83 616.61C3481.45 534.929 3448.74 417.349 3354.53 380.584C3285.28 353.562 3221.16 314.922 3164.91 266.328L3061.06 176.606C3053.87 170.389 3045.95 165.066 3037.47 160.75L3024.77 154.282C2827.76 53.9488 2604.28 17.7901 2385.68 50.8759L1990.78 110.645C1741.82 148.326 1490.37 167.247 1238.57 167.247C960.957 167.247 685.322 213.997 423.232 305.535L255.397 364.154C126.463 409.186 75.2344 564.187 151.938 677.183C185.694 726.911 238.812 760.146 298.295 768.758L1174.9 895.665L1810.77 960.905C2153.45 996.064 2499.57 974.777 2835.35 897.893Z" fill="white"/>
</g>
</svg>
