<svg width="1561" height="447" viewBox="0 0 1561 447" fill="none" xmlns="http://www.w3.org/2000/svg">
<g id="Cloud">
<path id="Vector 3" d="M1249.92 395.817L1358.68 370.916C1418.65 357.185 1472.19 321.51 1508.46 271.82C1534.75 235.813 1520.33 183.979 1478.8 167.772C1448.27 155.86 1420 138.827 1395.21 117.405L1349.43 77.8529C1346.25 75.1125 1342.76 72.7656 1339.03 70.8633L1333.43 68.0118C1246.58 23.7821 1148.06 7.84234 1051.7 22.4274L877.608 48.7755C767.855 65.3865 657.01 73.7272 546.008 73.7272C423.624 73.7272 302.114 94.3359 186.575 134.689L112.587 160.53C55.7497 180.381 33.1664 248.71 66.9801 298.522C81.8609 320.443 105.276 335.094 131.498 338.89L517.94 394.835L798.254 423.594C949.317 439.093 1101.9 429.709 1249.92 395.817Z" fill="white" fill-opacity="0.4"/>
</g>
</svg>
