<svg width="1231" height="1117" viewBox="0 0 1231 1117" fill="none" xmlns="http://www.w3.org/2000/svg">
<path id="InfoBar" d="M723.748 1019.01L660.177 1025.16C596.228 1031.34 533.871 1048.76 475.977 1076.61L450.75 1088.75C379.094 1123.23 296.048 1125.12 222.895 1093.94L173.903 1073.06C144.231 1060.42 119.893 1037.83 105.072 1009.18C61.0254 924.041 32.0973 831.898 19.5772 736.859L16.5 713.5L6.29394 645.769C-5.10219 570.14 -0.111503 492.945 20.928 419.413C32.6017 378.614 49.0577 339.338 69.9534 302.403L87.1073 272.082C101.786 246.136 109.5 216.833 109.5 187.023C109.5 127.356 96.8196 68.3699 72.2991 13.9739L66 0H1107.5L1102.12 16.0779C1073.59 101.383 1075.49 193.938 1107.5 278L1189.89 483.972C1228.88 581.448 1240.34 687.762 1223.02 791.309L1221.47 800.6C1209.46 872.353 1174.61 938.896 1122.73 989.89C1082.58 1029.35 1024.84 1046.16 969.88 1033.99C889.13 1016.11 806.069 1011.05 723.748 1019.01Z" fill="url(#paint0_linear_205_18)"/>
<defs>
<linearGradient id="paint0_linear_205_18" x1="634.5" y1="269" x2="659.5" y2="936" gradientUnits="userSpaceOnUse">
<stop stop-color="#0CC5CB" stop-opacity="0.2"/>
<stop offset="1" stop-color="#24549B"/>
</linearGradient>
</defs>
</svg>
